<?xml version="1.0" encoding="utf-8"?>
<!-- Generator: Adobe Illustrator 24.0.0, SVG Export Plug-In . SVG Version: 6.00 Build 0)  -->
<svg version="1.1" id="Layer_1" xmlns="http://www.w3.org/2000/svg" xmlns:xlink="http://www.w3.org/1999/xlink" x="0px" y="0px"
	 viewBox="0 0 1200 1200" style="enable-background:new 0 0 1200 1200;" xml:space="preserve">
<style type="text/css">
	.st0{fill:#FBC02D;}
</style>
<g>
	<path class="st0" d="M600,88L600,88C317.2,88,88,317.2,88,600c0,0,0,0,0,0v0c0,282.8,229.2,512,512,512c282.8,0,512-229.2,512-512
		C1112,317.2,882.8,88,600,88z M600,173.3c63.5,0,123.7,14,177.9,39l-53.3,116.2c-37.9-17.4-80.1-27.2-124.5-27.2V173.3z M600,344
		c38.1,0,74.2,8.4,106.7,23.4l-53.4,116.3c-16.2-7.5-34.3-11.7-53.4-11.7L600,344L600,344z M152,600c0-58.9,47.8-106.7,106.7-106.7
		c58.9,0,106.7,47.8,106.7,106.7c0,58.9-47.8,106.7-106.7,106.7C199.8,706.7,152,658.9,152,600z M521.7,948.9
		c-29.5,51-94.7,68.5-145.7,39c-51-29.5-68.5-94.7-39.1-145.7c29.5-51,94.7-68.5,145.7-39C533.7,832.7,551.2,897.9,521.7,948.9z
		 M482.7,396.8c-51,29.5-116.2,12-145.7-39c-29.5-51-12-116.2,39-145.7c51-29.5,116.3-12,145.7,39
		C551.2,302.1,533.7,367.3,482.7,396.8z M600,664c-35.3,0-64-28.7-64-64c0-35.3,28.7-64,64-64c9.5,0,18.5,2.1,26.6,5.9L600,600
		l37-52.1c16.3,11.6,27,30.6,27,52.1C664,635.3,635.3,664,600,664z M824,988c-51,29.5-116.2,12-145.7-39c-29.5-51-12-116.3,39-145.7
		c51-29.5,116.3-12,145.7,39C892.5,893.3,875,958.5,824,988z M858.7,749.2c25.4-43.9,40-94.8,40-149.2c0-29.9-4.4-58.8-12.6-86
		c16.7-11.5,27.7-30.8,27.7-52.7c0-35.3-28.6-64-64-64c-9.1,0-17.8,1.9-25.6,5.4c-11.3-12.8-23.5-24.6-36.8-35.3l-26.8,33.3
		c11.7,9.4,22.5,19.9,32.4,31.3c-4.5,8.8-7.2,18.7-7.2,29.3c0,33.7,26,61.2,59,63.8C852,548.8,856,573.9,856,600
		c0,46.5-12.6,90.2-34.4,127.8l-110.8-63.9c10.9-18.8,17.1-40.6,17.1-63.9c0-43.1-21.3-81.2-54-104.4l172.7-243.4
		c108.8,77.4,179.9,204.4,179.9,347.8c0,77.6-20.9,150.3-57.2,213.1L858.7,749.2z"/>
</g>
</svg>
