<?xml version="1.0" encoding="utf-8"?>
<!-- Generator: Adobe Illustrator 15.1.0, SVG Export Plug-In . SVG Version: 6.00 Build 0)  -->
<!DOCTYPE svg PUBLIC "-//W3C//DTD SVG 1.1//EN" "http://www.w3.org/Graphics/SVG/1.1/DTD/svg11.dtd">
<svg version="1.1" id="Layer_1" xmlns="http://www.w3.org/2000/svg" xmlns:xlink="http://www.w3.org/1999/xlink" x="0px" y="0px"
	 width="1200px" height="1200px" viewBox="0 0 1200 1200" enable-background="new 0 0 1200 1200" xml:space="preserve">
<g>
	<path d="M600,88.006v-0.012c-282.768,0-512,229.23-512,512C88,600,88,600,88,600v0.006c0,282.763,229.229,511.998,512,511.998
		c282.766,0,512-229.234,512-511.998C1112,317.241,882.77,88.006,600,88.006z M600,173.338c63.457,0,123.672,14.031,177.855,38.984
		l-53.312,116.193c-37.906-17.428-80.086-27.178-124.543-27.178V173.338z M600,344.006c38.074,0,74.219,8.385,106.719,23.359
		l-53.355,116.301c-16.25-7.463-34.312-11.66-53.363-11.66V344.006z M152,600.006c0-58.928,47.76-106.678,106.666-106.684
		c58.906,0,106.668,47.762,106.668,106.672c0,58.912-47.762,106.662-106.668,106.677C199.76,706.656,152,658.906,152,600.006z
		 M521.709,948.938C492.244,999.941,427.01,1017.434,376,987.98c-51.025-29.469-68.5-94.699-39.053-145.719
		c29.453-51.012,94.693-68.496,145.719-39.039C533.682,832.676,551.156,897.918,521.709,948.938z M482.666,396.772
		c-51.016,29.457-116.25,11.973-145.707-39.043c-29.453-51.01-11.975-116.25,39.041-145.707
		c51.021-29.459,116.256-11.969,145.713,39.041C551.166,302.079,533.688,367.319,482.666,396.772z M600.006,664.004
		C564.711,664,536,635.293,536,600.006c0-35.287,28.711-63.996,63.998-64c9.514,0,18.521,2.145,26.646,5.891l-26.658,58.109
		l36.994-52.137C653.301,559.479,664,578.5,664,600.006C664,635.293,635.293,664,600.006,664.004z M824,987.98
		c-51.016,29.457-116.25,11.977-145.707-39.043c-29.453-51.012-11.977-116.254,39.039-145.707
		c51.023-29.461,116.262-11.969,145.715,39.039C892.5,893.293,875.02,958.527,824,987.98z M858.688,749.207
		c25.379-43.91,39.98-94.836,39.98-149.201c0-29.906-4.438-58.766-12.625-86c16.707-11.547,27.676-30.818,27.676-52.668
		c0-35.348-28.645-64-64-64c-9.125,0-17.781,1.938-25.629,5.371c-11.258-12.762-23.543-24.59-36.797-35.281l-26.836,33.316
		c11.711,9.449,22.527,19.943,32.414,31.271c-4.547,8.791-7.152,18.744-7.152,29.322c0,33.672,26,61.203,59.02,63.75
		C852.02,548.797,856,573.938,856,600.006c0,46.544-12.551,90.193-34.355,127.837l-110.781-63.895
		C721.738,645.129,728,623.301,728,600.006c0-43.094-21.316-81.184-53.957-104.375l172.68-243.391
		c108.781,77.4,179.945,204.385,179.945,347.766c0,77.576-20.918,150.318-57.25,213.068L858.688,749.207z"/>
</g>
</svg>
